<svg width="84" height="84" viewBox="0 0 84 84" fill="none" xmlns="http://www.w3.org/2000/svg">
<g clip-path="url(#clip0_2626_284)">
<g clip-path="url(#clip1_2626_284)">
<path d="M42 0C65.1984 0 84 18.8016 84 42C84 65.1984 65.1984 84 42 84C18.8016 84 0 65.1984 0 42C0 18.8016 18.8016 0 42 0Z" fill="#0000FF"/>
</g>
<path d="M27 29.791C27 29.0063 27 28.6139 27.153 28.3121C27.2994 28.0231 27.5411 27.7894 27.8401 27.6479C28.1523 27.5 28.5582 27.5 29.37 27.5H54.63C55.4418 27.5 55.8477 27.5 56.1599 27.6479C56.4588 27.7894 56.7006 28.0231 56.847 28.3121C57 28.6139 57 29.0063 57 29.791V54.209C57 54.9937 57 55.3861 56.847 55.6879C56.7006 55.9768 56.4588 56.2106 56.1599 56.3521C55.8477 56.5 55.4418 56.5 54.63 56.5H29.37C28.5582 56.5 28.1523 56.5 27.8401 56.3521C27.5411 56.2106 27.2994 55.9768 27.153 55.6879C27 55.3861 27 54.9937 27 54.209V29.791Z" fill="white"/>
</g>
<defs>
<clipPath id="clip0_2626_284">
<rect width="84" height="84" fill="white"/>
</clipPath>
<clipPath id="clip1_2626_284">
<rect width="84" height="84" fill="white"/>
</clipPath>
</defs>
</svg>
