<svg width="85" height="85" viewBox="0 0 85 85" fill="none" xmlns="http://www.w3.org/2000/svg">
<g clip-path="url(#clip0_2539_4680)">
<path d="M42.5 0C65.9746 0 85 19.0254 85 42.5C85 65.9746 65.9746 85 42.5 85C19.0254 85 0 65.9746 0 42.5C0 19.0254 19.0254 0 42.5 0Z" fill="#0052FF"/>
<path d="M42.5083 57.4414C34.2573 57.4414 27.5669 50.7593 27.5669 42.5C27.5669 34.2407 34.2573 27.5586 42.5083 27.5586C49.9043 27.5586 56.0469 32.9541 57.2256 40.0098H72.2749C71.0049 24.6699 58.1636 12.6172 42.5 12.6172C25.998 12.6172 12.6172 25.998 12.6172 42.5C12.6172 59.0019 25.998 72.3828 42.5 72.3828C58.1636 72.3828 71.0049 60.3301 72.2749 44.9902H57.2173C56.0303 52.0459 49.9043 57.4414 42.5083 57.4414Z" fill="white"/>
</g>
<defs>
<clipPath id="clip0_2539_4680">
<rect width="85" height="85" fill="white"/>
</clipPath>
</defs>
</svg>
