<svg width="89" height="67" viewBox="0 0 89 67" fill="none" xmlns="http://www.w3.org/2000/svg">
<path opacity="0.2" d="M75.767 23.2278C75.2139 24.1496 74.4765 25.0713 73.5548 25.993C72.8174 26.7304 71.9878 27.2835 71.0661 27.6522C70.8817 27.8365 70.6052 28.0209 70.2365 28.2052C70.0522 28.2052 69.8678 28.2052 69.6835 28.2052C68.7617 28.7583 68.0244 29.4035 67.4713 30.1409C66.9183 30.6939 66.7339 31.247 66.9183 31.8C67.1026 32.5374 67.5635 32.9061 68.3009 32.9061C69.2226 32.9061 70.3287 32.6296 71.6191 32.0765C73.4626 31.3391 75.8591 30.9704 78.8087 30.9704H88.487V66.3652H53.0922V34.2887C53.0922 30.6017 53.6452 27.3756 54.7513 24.6104C56.0417 21.8452 58.807 16.6835 63.047 9.12521L68.3009 0H88.487L75.767 23.2278ZM22.6748 23.2278C22.1217 24.1496 21.3843 25.0713 20.4626 25.993C19.7252 26.7304 18.8957 27.2835 17.9739 27.6522C17.7896 27.8365 17.513 28.0209 17.1443 28.2052C16.96 28.2052 16.7757 28.2052 16.5913 28.2052C15.6696 28.7583 14.9322 29.4035 14.3791 30.1409C13.8261 30.6939 13.6417 31.247 13.8261 31.8C14.0104 32.5374 14.4713 32.9061 15.2087 32.9061C16.1304 32.9061 17.2365 32.6296 18.527 32.0765C20.3704 31.3391 22.767 30.9704 25.7165 30.9704H35.3948V66.3652H0V34.2887C0 30.6017 0.553044 27.3756 1.65913 24.6104C2.94956 21.8452 5.71478 16.6835 9.95478 9.12521L15.2087 0H35.3948L22.6748 23.2278Z" fill="#C2C2C2"/>
</svg>
